<svg width="48.366413" height="48.366455" viewBox="0 0 48.3664 48.3665" fill="none" xmlns="http://www.w3.org/2000/svg" xmlns:xlink="http://www.w3.org/1999/xlink">
	<desc>
			Created with Pixso.
	</desc>
	<defs/>
	<path id="Vector" d="M45.6983 0L2.66813 0C1.19447 0 0 1.19653 0 2.66821L0 45.6982C0 47.1741 1.19657 48.3665 2.66813 48.3665L25.8311 48.3665L25.8311 29.637L19.525 29.637L19.525 22.3401L25.8311 22.3401L25.8311 16.9492C25.8311 10.7041 29.6496 7.30542 35.221 7.30542C37.8912 7.30542 40.1857 7.50049 40.8553 7.58862L40.8553 14.1174L36.9844 14.1174C33.9614 14.1174 33.3737 15.572 33.3737 17.686L33.3737 22.3464L40.595 22.3464L39.6588 29.6602L33.3737 29.6602L33.3737 48.3665L45.6962 48.3665C46.0468 48.3669 46.3941 48.2983 46.7182 48.1646C47.0423 48.0305 47.3368 47.8342 47.5848 47.5862C47.8328 47.3384 48.0296 47.0442 48.1637 46.7202C48.2978 46.3962 48.3667 46.0488 48.3664 45.6982L48.3664 2.66821C48.3667 2.31763 48.2979 1.9707 48.1639 1.64673C48.0299 1.323 47.8334 1.02856 47.5855 0.780762C47.3377 0.532959 47.0435 0.336426 46.7197 0.202637C46.3958 0.0686035 46.0487 -0.000244141 45.6983 0Z" fill="#717171" fill-opacity="1.000000" fill-rule="nonzero"/>
</svg>
