<svg width="50.381683" height="50.381592" viewBox="0 0 50.3817 50.3816" fill="none" xmlns="http://www.w3.org/2000/svg" xmlns:xlink="http://www.w3.org/1999/xlink">
	<desc>
			Created with Pixso.
	</desc>
	<defs>
		<clipPath id="clip2_359">
			<rect id="Link → SVG" width="50.381680" height="50.381680" fill="white" fill-opacity="0"/>
		</clipPath>
	</defs>
	<g clip-path="url(#clip2_359)">
		<path id="Vector" d="M12.8058 21.1379C13.4723 23.3477 14.279 25.4204 15.1559 27.4197C16.6642 31.0005 17.6814 32.8948 19.0876 35.2446C20.8063 38.0508 22.7036 41.2458 25.8253 43.3154C28.1053 44.8237 30.8795 45.5952 33.5452 45.5952C37.3015 45.5952 40.5285 43.9468 42.6012 42.0144C44.6356 40.1204 47.2695 36.4692 47.2695 29.3457C47.2695 26.8904 48.3568 24.7825 49.1635 23.0989C49.1635 23.064 49.1986 22.9937 49.2688 22.8535C49.5845 22.1519 49.9703 21.24 49.9703 20.3279C49.9703 19.6614 49.7949 18.8899 49.3389 18.2234C48.6374 17.0308 47.3747 16.6099 46.214 16.6099C43.5132 16.6099 41.6509 18.5039 40.7039 20.4363L40.3882 21.0676C40.0024 20.5066 39.6165 19.9102 39.3009 19.384C38.3187 17.6653 37.7575 16.5078 37.2665 15.0315C36.8806 13.874 36.5649 12.541 36.3545 11.4504C35.7582 8.01001 34.7761 6.88745 33.1594 6.46655C31.9668 6.15088 30.5638 6.39648 29.5434 7.06299C28.8451 5.48438 27.6525 4.78296 26.0709 4.78296C23.826 4.78296 21.7884 6.2561 21.7884 8.74976C21.7884 9.06543 21.8235 9.3811 21.8586 9.76685C21.578 9.69678 21.2623 9.66162 20.9466 9.66162C18.5264 9.66162 16.7343 11.3452 16.7343 13.6284C16.7343 14.1545 16.8045 14.751 16.9799 15.4524C16.7694 15.4172 16.559 15.4172 16.3485 15.4172C15.1559 15.4875 14.0686 15.9434 13.2937 16.8906C12.5252 17.8025 12.2095 19.2056 12.8058 21.1379Z" fill="#717171" fill-opacity="1.000000" fill-rule="nonzero"/>
		<path id="Vector" d="M14.8053 20.5066C14.4896 19.4895 14.5246 18.7178 14.9105 18.2266C15.2963 17.7708 15.8224 17.5603 16.4538 17.5251C17.5412 17.49 17.9621 18.2617 18.5934 20.261C18.9793 21.5237 19.7509 23.3508 20.2069 24.3682C20.8032 25.5957 21.645 27.2444 22.0309 27.8088C22.3466 28.2998 22.6272 28.4402 22.9428 28.4402C23.5041 28.4402 23.925 28.1245 23.925 27.5632C23.925 27.2476 23.6093 26.7214 23.4339 26.4058C23.1182 25.8093 22.4518 24.6169 21.9958 23.5996C21.5047 22.4773 20.9435 21.0742 20.4875 19.8083C20.2069 19.0718 19.8913 18.0193 19.5756 16.967C19.0845 15.3535 18.839 14.3716 18.839 13.6318C18.839 12.5093 19.6808 11.7727 20.9435 11.7727C21.8555 11.7727 22.4518 12.2288 22.8376 13.8772C23.1533 15.3855 23.7145 17.844 24.5213 19.7732C25.0474 21.0359 25.8191 22.7227 26.2751 23.5645C26.5557 24.0557 26.8713 24.4766 26.8713 24.6519C26.8713 24.8975 26.4154 25.2832 26.0295 25.8093C25.784 26.125 25.6788 26.3354 25.6788 26.5811C25.6788 26.7915 25.8191 27.002 26.0295 27.2827C26.24 27.5632 26.4504 27.8438 26.696 27.8438C26.8713 27.8438 26.9766 27.7737 27.0818 27.6333C28.1691 26.2654 29.3617 25.3184 30.7329 24.5435C32.3464 23.6316 33.9981 23.1755 35.2959 22.895C35.9273 22.7546 36.1027 22.6143 36.1027 22.2637C36.1027 21.8428 35.787 21.5972 35.3661 21.562C35.0504 21.5269 34.7698 21.562 34.2787 21.5972C33.928 21.6321 33.7526 21.4568 33.5421 21.0007C32.9108 19.668 31.6831 17.4199 30.9465 14.5437C30.6308 13.3159 30.3502 12.0183 30.1749 10.3313C30.0696 9.55981 30.2099 9.27905 30.5958 8.92847C31.0868 8.50757 31.9637 8.33203 32.6302 8.50757C33.4369 8.71802 33.8578 9.34937 34.2787 11.8079C34.4892 12.9653 34.8399 14.4385 35.2608 15.7043C35.787 17.3179 36.4534 18.6541 37.4706 20.4429C38.0318 21.425 38.7334 22.4421 39.47 23.4275C39.3297 23.8484 39.0841 24.1289 38.2774 24.7954C37.4706 25.4619 36.6639 26.1633 35.9273 27.4612C35.4012 28.4082 35.1556 29.4604 35.1556 30.1621C35.1556 30.8284 35.2959 30.9688 35.7168 30.9688C36.4534 30.9688 37.0497 30.8284 37.0848 30.5127C37.2602 29.25 37.4706 28.4434 38.1721 27.4932C38.593 26.9668 39.3297 26.3005 39.9259 25.7744C41.0484 24.8623 41.4342 24.3362 41.82 23.0383C41.9954 22.4421 42.2059 21.8809 42.4865 21.3547C43.1529 20.1272 44.3455 18.7241 46.2077 18.7241C46.804 18.7241 47.2951 18.8994 47.6107 19.3906C47.7861 19.6711 47.8563 20.0569 47.8563 20.3376C47.8563 20.969 47.4003 21.8459 47.1898 22.2668C46.4182 23.9153 45.1554 26.4438 45.1554 29.3552C45.1554 35.7073 42.9106 38.8672 41.1536 40.4807C39.4349 42.0942 36.7309 43.5005 33.5389 43.5005C31.259 43.5005 28.9057 42.834 26.9766 41.5713C24.2757 39.7825 22.5889 36.9731 20.8702 34.167C19.5022 31.8872 18.5552 30.095 17.0788 26.6226C16.2466 24.6104 15.4717 22.6462 14.8053 20.5066Z" fill="#191919" fill-opacity="1.000000" fill-rule="nonzero"/>
		<path id="Vector" d="M23.826 8.75C23.826 7.41699 25.0537 6.89087 26.0709 6.89087C27.1582 6.89087 27.5441 7.41699 27.8247 8.53955C28.0702 9.45142 28.1755 10.2932 28.2807 11.2754C28.421 12.2576 28.912 14.5056 29.0524 15.0667C29.5785 16.9958 30.6308 19.2791 31.8935 22.0149C31.1569 22.2605 30.1748 22.6814 29.5083 23.0322C28.6665 23.488 28.4911 23.488 28.1404 22.8218C27.4038 21.4536 26.8777 20.4365 26.4217 19.2407C26.0358 18.2585 25.65 17.1362 25.3343 15.8352C24.8082 13.6255 24.738 12.9941 24.3171 11.9736C24.0716 10.9246 23.826 9.62671 23.826 8.75Z" fill="#191919" fill-opacity="1.000000" fill-rule="nonzero"/>
		<path id="Vector" d="M11.2626 32.2444C10.5196 32.7036 6.58155 34.7666 5.6919 35.095C5.05735 35.3311 4.36858 35.2737 3.96362 34.0747C3.46618 32.5918 4.16451 32.2412 5.15939 31.8552C6.03947 31.5142 9.69055 30.1941 10.5387 29.9644C11.135 29.8049 11.5496 30.0059 11.8365 30.7234C12.1522 31.511 11.9354 31.8267 11.2626 32.2444Z" fill="#717171" fill-opacity="1.000000" fill-rule="nonzero"/>
		<path id="Vector" d="M8.01645 23.8865C6.95779 23.9153 2.56055 23.7271 1.55611 23.6282C0.682404 23.5422 0.328453 23.1562 0.424118 21.8904C0.526154 20.532 1.05548 20.4492 1.91325 20.532C2.90813 20.6277 7.51582 21.377 8.24922 21.6035C9.00813 21.8394 9.11336 22.1838 9.02089 22.8472C8.90291 23.708 8.51389 23.8706 8.01645 23.8865Z" fill="#717171" fill-opacity="1.000000" fill-rule="nonzero"/>
		<path id="Vector" d="M8.56169 14.9839C7.34998 14.6013 3.75311 12.4233 2.81563 11.8621C1.96743 11.3518 1.85902 10.8928 2.44893 9.77344C2.97188 8.78491 3.55222 8.61279 4.41318 9.05933C5.41124 9.5791 8.93477 12.3213 9.60759 12.8633C10.2581 13.3862 10.1688 13.6575 9.82761 14.3301C9.48642 15.0029 9.16754 15.1753 8.56169 14.9839Z" fill="#717171" fill-opacity="1.000000" fill-rule="nonzero"/>
	</g>
</svg>
