<svg width="48.366409" height="48.366455" viewBox="0 0 48.3664 48.3665" fill="none" xmlns="http://www.w3.org/2000/svg" xmlns:xlink="http://www.w3.org/1999/xlink">
	<desc>
			Created with Pixso.
	</desc>
	<defs/>
	<path id="Vector" d="M24.1832 0C17.6126 0 16.7939 0.0292969 14.2118 0.146973C11.6382 0.266602 9.88531 0.671875 8.34237 1.27002C6.75324 1.88721 5.40343 2.71436 4.05992 4.05786C2.82719 5.26465 1.87415 6.72729 1.26794 8.34229C0.671753 9.88745 0.266602 11.6382 0.14695 14.2139C0.0251923 16.7939 0 17.6125 0 24.1831C0 30.7539 0.0293884 31.5725 0.14695 34.1545C0.266602 36.7261 0.671753 38.4812 1.27003 40.0239C1.87711 41.6372 2.82845 43.0986 4.05782 44.3064C5.26526 45.5386 6.72763 46.4915 8.34237 47.0984C9.88741 47.6926 11.6403 48.1018 14.2139 48.2217C16.7939 48.3413 17.6147 48.3665 24.1832 48.3665C30.7538 48.3665 31.5725 48.3369 34.1546 48.2195C36.7261 48.0999 38.4811 47.6946 40.024 47.0964C41.6111 46.4792 42.963 45.6479 44.3065 44.3086C45.5389 43.1016 46.492 41.6389 47.0985 40.0239C47.6926 38.4812 48.1019 36.7261 48.2216 34.1526C48.3412 31.5725 48.3664 30.7517 48.3664 24.1831C48.3664 17.6125 48.337 16.7939 48.2195 14.2119C48.0998 11.6404 47.6947 9.8833 47.0964 8.34229C46.4891 6.72949 45.5378 5.26807 44.3086 4.05981C43.102 2.8269 41.6394 1.87378 40.024 1.26782C38.479 0.671875 36.7261 0.266602 34.1525 0.146973C31.5725 0.0251465 30.7538 0 24.1832 0ZM24.1832 4.35376C30.6384 4.35376 31.4088 4.38525 33.9573 4.49658C36.3147 4.60791 37.5952 4.99829 38.4454 5.33203C39.579 5.7688 40.3809 6.29346 41.2311 7.13745C42.075 7.9856 42.5977 8.78955 43.0364 9.9209C43.366 10.7712 43.7607 12.0518 43.8677 14.4092C43.9832 16.9597 44.0084 17.7261 44.0084 24.1831C44.0084 30.6404 43.979 31.4087 43.8614 33.9573C43.7355 36.3147 43.345 37.5952 43.0113 38.4453C42.5599 39.5791 42.0456 40.3809 41.1996 41.2312C40.4178 42.0317 39.4677 42.6484 38.4181 43.0364C37.5721 43.366 36.2727 43.7607 33.9153 43.8677C31.3479 43.9832 30.5922 44.0083 24.1223 44.0083C17.6525 44.0083 16.8968 43.979 14.3315 43.8613C11.9698 43.7356 10.6704 43.345 9.82442 43.0112C8.77415 42.6228 7.82439 42.0037 7.04504 41.1997C6.23601 40.4231 5.61556 39.4717 5.2313 38.4182C4.89962 37.572 4.50916 36.2727 4.38531 33.9153C4.29504 31.3752 4.26145 30.5923 4.26145 24.1538C4.26145 17.7112 4.29504 16.926 4.38531 14.3567C4.50916 11.9993 4.89962 10.7019 5.2313 9.85376C5.65534 8.70557 6.19695 7.92041 7.04504 7.07227C7.88893 6.22632 8.67825 5.68262 9.82442 5.2627C10.6704 4.927 11.9426 4.53442 14.3 4.4126C16.8695 4.32227 17.6252 4.29297 24.0929 4.29297L24.1832 4.35376ZM24.1832 11.7642C22.5523 11.7642 20.9374 12.0854 19.4306 12.7095C17.9239 13.3335 16.5548 14.2483 15.4016 15.4016C14.2484 16.5547 13.3336 17.9238 12.7095 19.4307C12.0854 20.9375 11.7641 22.5522 11.7641 24.1831C11.7641 25.8142 12.0854 27.429 12.7095 28.9358C13.3336 30.4426 14.2484 31.8115 15.4016 32.9648C16.5548 34.1179 17.9239 35.0327 19.4306 35.657C20.9374 36.281 22.5523 36.6023 24.1832 36.6023C25.8141 36.6023 27.429 36.281 28.9358 35.657C30.4425 35.0327 31.8116 34.1179 32.9648 32.9648C34.118 31.8115 35.0328 30.4426 35.6569 28.9358C36.2811 27.429 36.6023 25.8142 36.6023 24.1831C36.6023 22.5522 36.2811 20.9375 35.6569 19.4307C35.0328 17.9238 34.118 16.5547 32.9648 15.4016C31.8116 14.2483 30.4425 13.3335 28.9358 12.7095C27.429 12.0854 25.8141 11.7642 24.1832 11.7642ZM24.1832 32.2444C23.1245 32.2446 22.0762 32.0361 21.098 31.6311C20.1199 31.2263 19.2311 30.6326 18.4826 29.8838C17.734 29.1353 17.1402 28.2466 16.7352 27.2683C16.3302 26.2903 16.1219 25.2419 16.1221 24.1831C16.1219 23.1245 16.3302 22.0762 16.7352 21.0981C17.1402 20.1199 17.734 19.2312 18.4826 18.4827C19.2311 17.7339 20.1199 17.1401 21.098 16.7351C22.0762 16.3301 23.1245 16.1218 24.1832 16.1221C25.2419 16.1218 26.2902 16.3301 27.2684 16.7351C28.2465 17.1401 29.1353 17.7339 29.8839 18.4827C30.6325 19.2312 31.2262 20.1199 31.6312 21.0981C32.0362 22.0762 32.2445 23.1245 32.2443 24.1831C32.2445 25.2419 32.0362 26.2903 31.6312 27.2683C31.2262 28.2466 30.6325 29.1353 29.8839 29.8838C29.1353 30.6326 28.2465 31.2263 27.2684 31.6311C26.2902 32.0361 25.2419 32.2446 24.1832 32.2444ZM39.9947 11.2749C39.9743 12.0312 39.6596 12.7495 39.1176 13.2773C38.5755 13.8049 37.8489 14.1001 37.0925 14.1001C36.336 14.1001 35.6094 13.8049 35.0673 13.2773C34.5253 12.7495 34.2106 12.0312 34.1903 11.2749C34.2106 10.5188 34.5253 9.80029 35.0673 9.27271C35.6094 8.74512 36.336 8.44971 37.0925 8.44971C37.8489 8.44971 38.5755 8.74512 39.1176 9.27271C39.6596 9.80029 39.9743 10.5188 39.9947 11.2749Z" fill="#717171" fill-opacity="1.000000" fill-rule="nonzero"/>
</svg>
