<svg width="50.381683" height="50.381592" viewBox="0 0 50.3817 50.3816" fill="none" xmlns="http://www.w3.org/2000/svg" xmlns:xlink="http://www.w3.org/1999/xlink">
	<desc>
			Created with Pixso.
	</desc>
	<defs/>
	<path id="Vector" d="M25.1908 50.3816C39.1067 50.3816 50.3817 39.1067 50.3817 25.1909C50.3817 11.2749 39.1067 0 25.1908 0C11.275 0 0 11.2749 0 25.1909C0 39.1067 11.275 50.3816 25.1908 50.3816ZM11.5269 24.645L35.8151 15.2803C36.9424 14.873 37.9269 15.5554 37.5616 17.26L37.5637 17.2578L33.4283 36.7407C33.1217 38.1221 32.301 38.458 31.1527 37.8074L24.855 33.1658L21.8174 36.0923C21.4815 36.428 21.1981 36.7114 20.5473 36.7114L20.9945 30.3025L32.6662 19.7581C33.1742 19.3108 32.5529 19.0591 31.8832 19.5039L17.4594 28.5852L11.2414 26.6455C9.8916 26.2173 9.86221 25.2959 11.5269 24.645Z" fill="#717171" fill-opacity="1.000000" fill-rule="nonzero"/>
</svg>
