<svg width="45.042969" height="50.381592" viewBox="0 0 45.043 50.3816" fill="none" xmlns="http://www.w3.org/2000/svg" xmlns:xlink="http://www.w3.org/1999/xlink">
	<desc>
			Created with Pixso.
	</desc>
	<defs/>
	<path id="Vector" d="M16.3274 50.3816C12.6599 50.3816 9.20111 49.2117 6.32483 46.9976C5.78757 46.5845 5.27095 46.1328 4.78879 45.6565C1.43132 42.3384 -0.25824 37.9192 0.0320435 33.2126C0.25148 29.6553 1.6842 26.2261 4.06848 23.5564C7.2262 20.0208 11.5795 18.0735 16.3284 18.0735C17.1441 18.0735 17.9677 18.1345 18.7786 18.2544L20.0381 18.4414L20.0381 29.6189L18.0986 28.9783C17.5338 28.7913 16.9463 28.6968 16.352 28.6968C14.8504 28.6968 13.4442 29.2854 12.3923 30.353C11.3453 31.4158 10.7814 32.8208 10.8031 34.3118C10.8316 36.2334 11.8442 37.9751 13.5111 38.9729C14.2786 39.4316 15.1525 39.7002 16.04 39.7493C16.7407 39.7878 17.4324 39.6963 18.0976 39.4768C20.3717 38.7261 21.8999 36.6162 21.8999 34.228L21.9097 22.6362L21.9097 0L32.5922 0L32.605 1.46216C32.6109 2.12451 32.6788 2.78662 32.8067 3.42822C33.3086 5.95142 34.7236 8.19971 36.791 9.75854C38.6262 11.1431 40.8166 11.874 43.1231 11.874C43.1773 11.874 43.1773 11.874 43.6703 11.9087L45.043 12.0051L45.043 21.0579L45.043 22.5339L44.5509 22.533L43.5699 22.533C43.562 22.533 43.5541 22.533 43.5453 22.533L43.0739 22.533C43.072 22.533 43.069 22.533 43.0661 22.533C40.2213 22.533 37.5556 21.9907 34.9135 20.876C34.1263 20.5432 33.3597 20.1636 32.6198 19.7395L32.6532 34.2842C32.6355 38.5862 30.9351 42.6218 27.866 45.6555C25.3754 48.1165 22.2325 49.689 18.7766 50.2007C17.9707 50.3206 17.1471 50.3816 16.3274 50.3816ZM16.3274 21.0254C12.4316 21.0254 8.85966 22.6226 6.26973 25.5225C4.32532 27.7002 3.1563 30.4956 2.9772 33.3936C2.74104 37.2361 4.12064 40.8455 6.8631 43.5557C7.25966 43.9473 7.68376 44.3181 8.1246 44.6577C10.4803 46.4712 13.3173 47.4297 16.3274 47.4297C17.0024 47.4297 17.6804 47.3794 18.3446 47.281C21.1756 46.8618 23.7508 45.5737 25.7917 43.5566C28.2989 41.0789 29.6874 37.7852 29.7021 34.2822L29.6559 13.9731L32.0402 15.8123C33.2712 16.7617 34.6252 17.551 36.0628 18.158C38.0279 18.9875 40.0087 19.448 42.0899 19.5574L42.0899 14.7898C39.5177 14.5969 37.0882 13.6829 35.0129 12.1172C32.3659 10.1216 30.5543 7.24048 29.9108 4.00586C29.8419 3.65869 29.7858 3.30737 29.7444 2.95312L24.8608 2.95312L24.8608 22.6372L24.8509 34.229C24.8509 37.8926 22.509 41.1279 19.0226 42.2793C18.0061 42.6147 16.9483 42.7546 15.8777 42.6965C14.5138 42.6218 13.1716 42.2095 11.9948 41.5059C9.44319 39.9797 7.89336 37.3062 7.85007 34.355C7.8166 32.0681 8.68155 29.9111 10.2875 28.2808C11.8983 26.6453 14.0513 25.7449 16.35 25.7449C16.596 25.7449 16.84 25.7556 17.0841 25.7764L17.0841 21.0461C16.8322 21.0325 16.5793 21.0254 16.3274 21.0254Z" fill="#717171" fill-opacity="1.000000" fill-rule="nonzero"/>
</svg>
