<svg width="48.367912" height="27.551514" viewBox="0 0 48.3679 27.5515" fill="none" xmlns="http://www.w3.org/2000/svg" xmlns:xlink="http://www.w3.org/1999/xlink">
	<desc>
			Created with Pixso.
	</desc>
	<defs/>
	<path id="Vector" d="M23.5797 27.4197L26.4766 27.4197C26.4766 27.4197 27.3478 27.3252 27.7929 26.8486C28.2169 26.4016 28.2169 25.5786 28.2169 25.5786C28.2169 25.5786 28.1539 21.6951 29.9677 21.124C31.7562 20.5574 34.0234 24.8733 36.4396 26.5317C38.2869 27.7996 39.6724 27.5269 39.6724 27.5269L46.1444 27.4385C46.1444 27.4385 49.5347 27.2266 47.9329 24.5627C47.8091 24.3528 47.024 22.5999 43.153 19.0017C39.0993 15.2524 39.6431 15.8572 44.5175 9.35571C47.4774 5.39453 48.6887 2.97412 48.2961 1.94556C47.9602 0.979736 45.756 1.21899 45.756 1.21899L38.4969 1.28198C38.4969 1.28198 37.9511 1.21899 37.5585 1.46265C37.166 1.7041 36.9266 2.25195 36.9266 2.25195C36.9266 2.25195 35.7721 5.3335 34.2333 7.93457C30.9627 13.4346 29.6633 13.7368 29.149 13.3738C27.9314 12.5864 28.2463 10.1892 28.2463 8.47192C28.2463 3.15039 29.0587 0.914795 26.6719 0.341553C25.8847 0.156982 25.299 0.0393066 23.2753 0.00585938C20.6765 -0.0214844 18.4828 0.0268555 17.24 0.633545C16.4234 1.04272 15.7894 1.94751 16.1526 1.99365C16.6354 2.05469 17.7228 2.2876 18.298 3.07495C19.0537 4.09497 19.0202 6.37061 19.0202 6.37061C19.0202 6.37061 19.4463 12.6516 18.0251 13.4324C17.028 13.9595 15.6971 12.8677 12.7959 7.87793C11.3139 5.33789 10.1929 2.49756 10.1929 2.49756C10.1929 2.49756 9.98294 1.9812 9.59248 1.67896C9.25055 1.45728 8.86929 1.30347 8.46939 1.22534L1.54611 1.28638C1.54611 1.28638 0.517487 1.31787 0.158508 1.76904C-0.177368 2.16162 0.124924 3.00757 0.124924 3.00757C0.124924 3.00757 5.53886 15.6787 11.677 22.0603C17.3009 27.9067 23.6805 27.531 23.6805 27.531L23.5797 27.4197Z" fill="#717171" fill-opacity="1.000000" fill-rule="nonzero"/>
</svg>
