<svg width="50.381683" height="50.381592" viewBox="0 0 50.3817 50.3816" fill="none" xmlns="http://www.w3.org/2000/svg" xmlns:xlink="http://www.w3.org/1999/xlink">
	<desc>
			Created with Pixso.
	</desc>
	<defs>
		<clipPath id="clip2_356">
			<rect id="Link → SVG" width="50.381680" height="50.381680" fill="white" fill-opacity="0"/>
		</clipPath>
	</defs>
	<g clip-path="url(#clip2_356)">
		<path id="Vector" d="M42.8955 7.31641C38.1626 2.60107 31.8664 0.00268555 25.1655 0C18.4795 0 12.1734 2.59619 7.40934 7.31006C2.63686 12.0322 0.00614929 18.3076 0 24.9575L0 24.9651L0 24.9697C0.000770569 28.9946 1.0582 33.0549 3.06544 36.7612L0.0688057 50.3816L13.8462 47.2478C17.3356 49.0063 21.229 49.9336 25.1559 49.9351L25.1659 49.9351C31.8506 49.9351 38.1568 47.3386 42.9216 42.624C47.6983 37.8982 50.3302 31.6309 50.3332 24.9768C50.3352 18.3696 47.6941 12.0977 42.8955 7.31641ZM25.1655 46.0027L25.1566 46.0027C21.6307 46.0012 18.1371 45.116 15.0539 43.4421L14.4024 43.0884L5.24104 45.1721L7.23099 36.1284L6.84737 35.4668C4.94007 32.1777 3.93222 28.5469 3.93222 24.9656C3.93953 13.3738 13.4637 3.93213 25.1647 3.93213C30.8174 3.93457 36.1288 6.12598 40.1202 10.1021C44.172 14.1394 46.4026 19.4216 46.4006 24.9756C46.396 36.5701 36.8699 46.0027 25.1655 46.0027Z" fill="#717171" fill-opacity="1.000000" fill-rule="nonzero"/>
		<path id="Vector" d="M18.3177 13.9595L17.2146 13.9595C16.8306 13.9595 16.2071 14.1033 15.6797 14.677C15.152 15.2515 13.6648 16.6394 13.6648 19.4624C13.6648 22.2852 15.7278 25.0127 16.0153 25.396C16.3032 25.7788 19.9975 31.7568 25.8485 34.0564C30.7114 35.9675 31.7011 35.5874 32.7563 35.4917C33.8118 35.3965 36.1623 34.1042 36.642 32.7646C37.1217 31.425 37.1217 30.2764 36.9779 30.0366C36.8338 29.7976 36.4498 29.6541 35.8744 29.3674C35.2986 29.0803 32.4772 27.6689 31.9494 27.4771C31.4217 27.2859 31.0381 27.1902 30.6541 27.7649C30.2701 28.3384 29.1396 29.6653 28.8037 30.0481C28.4681 30.4314 28.1322 30.4795 27.5564 30.1924C26.9805 29.9043 25.1455 29.2878 22.9465 27.3337C21.2348 25.8127 20.0471 23.873 19.7111 23.2988C19.3756 22.7249 19.6754 22.4143 19.964 22.1279C20.2227 21.8711 20.5721 21.5198 20.86 21.1851C21.1476 20.8499 21.2294 20.6108 21.4216 20.228C21.6134 19.8452 21.5173 19.51 21.3736 19.2231C21.2294 18.936 20.1247 16.0989 19.6127 14.9644L19.6131 14.9644C19.1818 14.0088 18.7279 13.9763 18.3177 13.9595Z" fill="#717171" fill-opacity="1.000000" fill-rule="nonzero"/>
	</g>
</svg>
