<svg width="48.347656" height="33.789307" viewBox="0 0 48.3477 33.7893" fill="none" xmlns="http://www.w3.org/2000/svg" xmlns:xlink="http://www.w3.org/1999/xlink">
	<desc>
			Created with Pixso.
	</desc>
	<defs/>
	<path id="Vector" d="M47.3383 5.21655C47.0583 4.2124 46.524 3.29761 45.787 2.5603C45.0501 1.823 44.1354 1.28809 43.1314 1.00757C39.3633 0 24.1963 0 24.1963 0C24.1963 0 9.06708 -0.0209961 5.26117 1.00757C4.25641 1.2876 3.34088 1.82202 2.60315 2.55933C1.86542 3.29663 1.33051 4.21191 1.05011 5.21655C0.336487 9.0752 -0.0149231 12.9917 0.000488281 16.9158C-0.0121155 20.8245 0.340546 24.7249 1.05011 28.5686C1.33032 29.573 1.86493 30.488 2.60226 31.2253C3.3396 31.9626 4.2547 32.4973 5.25906 32.7776C9.02512 33.7893 24.1942 33.7893 24.1942 33.7893C24.1942 33.7893 39.3213 33.7893 43.1293 32.7776C44.1337 32.4973 45.0488 31.9626 45.7861 31.2253C46.5234 30.488 47.058 29.573 47.3383 28.5686C48.0352 24.7249 48.3732 20.8223 48.3459 16.9158C48.3752 12.9932 48.0378 9.07642 47.3383 5.21655ZM19.3554 24.1519L19.3554 9.65649L31.9781 16.9158L19.3554 24.1519Z" fill="#717171" fill-opacity="1.000000" fill-rule="nonzero"/>
</svg>
